<?xml version="1.0" encoding="UTF-8" standalone="no"?>
<!DOCTYPE svg PUBLIC "-//W3C//DTD SVG 1.1//EN"
 "http://www.w3.org/Graphics/SVG/1.1/DTD/svg11.dtd">
<!-- Generated by graphviz version 2.38.0 (20140413.2041)
 -->
<!-- Title: snakemake_dag Pages: 1 -->
<svg width="844pt" height="620pt"
 viewBox="0.00 0.00 843.50 620.00" xmlns="http://www.w3.org/2000/svg" xmlns:xlink="http://www.w3.org/1999/xlink">
<g id="graph0" class="graph" transform="scale(1 1) rotate(0) translate(4 616)">
<title>snakemake_dag</title>
<polygon fill="white" stroke="none" points="-4,4 -4,-616 839.5,-616 839.5,4 -4,4"/>
<!-- 0 -->
<g id="node1" class="node"><title>0</title>
<path fill="none" stroke="#5692d8" stroke-width="2" stroke-dasharray="5,2" d="M277.5,-36C277.5,-36 247.5,-36 247.5,-36 241.5,-36 235.5,-30 235.5,-24 235.5,-24 235.5,-12 235.5,-12 235.5,-6 241.5,-0 247.5,-0 247.5,-0 277.5,-0 277.5,-0 283.5,-0 289.5,-6 289.5,-12 289.5,-12 289.5,-24 289.5,-24 289.5,-30 283.5,-36 277.5,-36"/>
<text text-anchor="middle" x="262.5" y="-15.5" font-family="sans" font-size="10.00">all</text>
</g>
<!-- 1 -->
<g id="node2" class="node"><title>1</title>
<path fill="none" stroke="#d85656" stroke-width="2" stroke-dasharray="5,2" d="M95,-612C95,-612 12,-612 12,-612 6,-612 0,-606 0,-600 0,-600 0,-588 0,-588 0,-582 6,-576 12,-576 12,-576 95,-576 95,-576 101,-576 107,-582 107,-588 107,-588 107,-600 107,-600 107,-606 101,-612 95,-612"/>
<text text-anchor="middle" x="53.5" y="-597" font-family="sans" font-size="10.00">popins2_assemble</text>
<text text-anchor="middle" x="53.5" y="-586" font-family="sans" font-size="10.00">sample: HG00448</text>
</g>
<!-- 1&#45;&gt;0 -->
<g id="edge1" class="edge"><title>1&#45;&gt;0</title>
<path fill="none" stroke="grey" stroke-width="2" d="M45.8101,-575.907C34.7064,-549.623 15.5,-497.447 15.5,-451 15.5,-451 15.5,-451 15.5,-161 15.5,-65.4923 156.016,-33.2752 225.08,-23.2084"/>
<polygon fill="grey" stroke="grey" stroke-width="2" points="225.693,-26.6572 235.123,-21.8277 224.739,-19.7225 225.693,-26.6572"/>
</g>
<!-- 4 -->
<g id="node5" class="node"><title>4</title>
<path fill="none" stroke="#56d873" stroke-width="2" stroke-dasharray="5,2" d="M390.5,-540C390.5,-540 282.5,-540 282.5,-540 276.5,-540 270.5,-534 270.5,-528 270.5,-528 270.5,-516 270.5,-516 270.5,-510 276.5,-504 282.5,-504 282.5,-504 390.5,-504 390.5,-504 396.5,-504 402.5,-510 402.5,-516 402.5,-516 402.5,-528 402.5,-528 402.5,-534 396.5,-540 390.5,-540"/>
<text text-anchor="middle" x="336.5" y="-519.5" font-family="sans" font-size="10.00">popins2_merge_contigs</text>
</g>
<!-- 1&#45;&gt;4 -->
<g id="edge14" class="edge"><title>1&#45;&gt;4</title>
<path fill="none" stroke="grey" stroke-width="2" d="M107.063,-579.751C150.463,-569.016 212.15,-553.758 260.632,-541.766"/>
<polygon fill="grey" stroke="grey" stroke-width="2" points="261.587,-545.135 270.454,-539.337 259.906,-538.34 261.587,-545.135"/>
</g>
<!-- 5 -->
<g id="node6" class="node"><title>5</title>
<path fill="none" stroke="#70d856" stroke-width="2" stroke-dasharray="5,2" d="M200.5,-468C200.5,-468 112.5,-468 112.5,-468 106.5,-468 100.5,-462 100.5,-456 100.5,-456 100.5,-444 100.5,-444 100.5,-438 106.5,-432 112.5,-432 112.5,-432 200.5,-432 200.5,-432 206.5,-432 212.5,-438 212.5,-444 212.5,-444 212.5,-456 212.5,-456 212.5,-462 206.5,-468 200.5,-468"/>
<text text-anchor="middle" x="156.5" y="-447.5" font-family="sans" font-size="10.00">popins2_contigmap</text>
</g>
<!-- 1&#45;&gt;5 -->
<g id="edge17" class="edge"><title>1&#45;&gt;5</title>
<path fill="none" stroke="grey" stroke-width="2" d="M65.9242,-575.871C83.8653,-551.137 117.155,-505.242 137.995,-476.512"/>
<polygon fill="grey" stroke="grey" stroke-width="2" points="140.993,-478.339 144.032,-468.189 135.327,-474.229 140.993,-478.339"/>
</g>
<!-- 2 -->
<g id="node3" class="node"><title>2</title>
<path fill="none" stroke="#d85656" stroke-width="2" stroke-dasharray="5,2" d="M284,-612C284,-612 201,-612 201,-612 195,-612 189,-606 189,-600 189,-600 189,-588 189,-588 189,-582 195,-576 201,-576 201,-576 284,-576 284,-576 290,-576 296,-582 296,-588 296,-588 296,-600 296,-600 296,-606 290,-612 284,-612"/>
<text text-anchor="middle" x="242.5" y="-597" font-family="sans" font-size="10.00">popins2_assemble</text>
<text text-anchor="middle" x="242.5" y="-586" font-family="sans" font-size="10.00">sample: HG00449</text>
</g>
<!-- 2&#45;&gt;0 -->
<g id="edge2" class="edge"><title>2&#45;&gt;0</title>
<path fill="none" stroke="grey" stroke-width="2" d="M211.431,-575.991C176.57,-555.22 121.043,-516.751 91.5,-468 70.5377,-433.409 72.5,-419.447 72.5,-379 72.5,-379 72.5,-379 72.5,-161 72.5,-115.41 88.8482,-101.626 123.5,-72 152.737,-47.0036 195.004,-33.1531 225.243,-25.9401"/>
<polygon fill="grey" stroke="grey" stroke-width="2" points="226.406,-29.2658 235.396,-23.6582 224.871,-22.4362 226.406,-29.2658"/>
</g>
<!-- 2&#45;&gt;4 -->
<g id="edge15" class="edge"><title>2&#45;&gt;4</title>
<path fill="none" stroke="grey" stroke-width="2" d="M265.736,-575.697C277.688,-566.796 292.423,-555.823 305.347,-546.199"/>
<polygon fill="grey" stroke="grey" stroke-width="2" points="307.601,-548.884 313.531,-540.104 303.42,-543.27 307.601,-548.884"/>
</g>
<!-- 6 -->
<g id="node7" class="node"><title>6</title>
<path fill="none" stroke="#70d856" stroke-width="2" stroke-dasharray="5,2" d="M330.5,-468C330.5,-468 242.5,-468 242.5,-468 236.5,-468 230.5,-462 230.5,-456 230.5,-456 230.5,-444 230.5,-444 230.5,-438 236.5,-432 242.5,-432 242.5,-432 330.5,-432 330.5,-432 336.5,-432 342.5,-438 342.5,-444 342.5,-444 342.5,-456 342.5,-456 342.5,-462 336.5,-468 330.5,-468"/>
<text text-anchor="middle" x="286.5" y="-447.5" font-family="sans" font-size="10.00">popins2_contigmap</text>
</g>
<!-- 2&#45;&gt;6 -->
<g id="edge19" class="edge"><title>2&#45;&gt;6</title>
<path fill="none" stroke="grey" stroke-width="2" d="M244.94,-575.958C247.813,-557.81 253.264,-528.401 261.5,-504 264.493,-495.132 268.564,-485.793 272.551,-477.466"/>
<polygon fill="grey" stroke="grey" stroke-width="2" points="275.816,-478.76 277.124,-468.246 269.545,-475.65 275.816,-478.76"/>
</g>
<!-- 3 -->
<g id="node4" class="node"><title>3</title>
<path fill="none" stroke="#d85656" stroke-width="2" stroke-dasharray="5,2" d="M793,-612C793,-612 710,-612 710,-612 704,-612 698,-606 698,-600 698,-600 698,-588 698,-588 698,-582 704,-576 710,-576 710,-576 793,-576 793,-576 799,-576 805,-582 805,-588 805,-588 805,-600 805,-600 805,-606 799,-612 793,-612"/>
<text text-anchor="middle" x="751.5" y="-597" font-family="sans" font-size="10.00">popins2_assemble</text>
<text text-anchor="middle" x="751.5" y="-586" font-family="sans" font-size="10.00">sample: HG00450</text>
</g>
<!-- 3&#45;&gt;0 -->
<g id="edge3" class="edge"><title>3&#45;&gt;0</title>
<path fill="none" stroke="grey" stroke-width="2" d="M770.142,-575.685C794.889,-550.72 835.5,-501.985 835.5,-451 835.5,-451 835.5,-451 835.5,-161 835.5,-116.058 824.884,-96.9439 787.5,-72 707.565,-18.6641 406.056,-17.1522 299.822,-18.3439"/>
<polygon fill="grey" stroke="grey" stroke-width="2" points="299.539,-14.8472 289.584,-18.4743 299.628,-21.8466 299.539,-14.8472"/>
</g>
<!-- 3&#45;&gt;4 -->
<g id="edge16" class="edge"><title>3&#45;&gt;4</title>
<path fill="none" stroke="grey" stroke-width="2" d="M697.671,-583.92C625.038,-571.669 495.251,-549.777 412.641,-535.843"/>
<polygon fill="grey" stroke="grey" stroke-width="2" points="413.001,-532.354 402.558,-534.142 411.837,-539.257 413.001,-532.354"/>
</g>
<!-- 7 -->
<g id="node8" class="node"><title>7</title>
<path fill="none" stroke="#70d856" stroke-width="2" stroke-dasharray="5,2" d="M795.5,-468C795.5,-468 707.5,-468 707.5,-468 701.5,-468 695.5,-462 695.5,-456 695.5,-456 695.5,-444 695.5,-444 695.5,-438 701.5,-432 707.5,-432 707.5,-432 795.5,-432 795.5,-432 801.5,-432 807.5,-438 807.5,-444 807.5,-444 807.5,-456 807.5,-456 807.5,-462 801.5,-468 795.5,-468"/>
<text text-anchor="middle" x="751.5" y="-447.5" font-family="sans" font-size="10.00">popins2_contigmap</text>
</g>
<!-- 3&#45;&gt;7 -->
<g id="edge21" class="edge"><title>3&#45;&gt;7</title>
<path fill="none" stroke="grey" stroke-width="2" d="M751.5,-575.871C751.5,-551.67 751.5,-507.211 751.5,-478.393"/>
<polygon fill="grey" stroke="grey" stroke-width="2" points="755,-478.189 751.5,-468.189 748,-478.189 755,-478.189"/>
</g>
<!-- 4&#45;&gt;0 -->
<g id="edge4" class="edge"><title>4&#45;&gt;0</title>
<path fill="none" stroke="grey" stroke-width="2" d="M396.94,-503.966C474.704,-478.605 607.386,-422.949 671.5,-324 715.174,-256.597 713.892,-219.855 687.5,-144 674.089,-105.452 665.877,-92.3539 630.5,-72 574.556,-39.8125 381.444,-25.5705 299.612,-20.8789"/>
<polygon fill="grey" stroke="grey" stroke-width="2" points="299.693,-17.3781 289.513,-20.3163 299.303,-24.3672 299.693,-17.3781"/>
</g>
<!-- 4&#45;&gt;5 -->
<g id="edge18" class="edge"><title>4&#45;&gt;5</title>
<path fill="none" stroke="grey" stroke-width="2" d="M292.467,-503.876C267.532,-494.179 236.162,-481.98 209.838,-471.743"/>
<polygon fill="grey" stroke="grey" stroke-width="2" points="210.979,-468.431 200.39,-468.068 208.441,-474.955 210.979,-468.431"/>
</g>
<!-- 4&#45;&gt;6 -->
<g id="edge20" class="edge"><title>4&#45;&gt;6</title>
<path fill="none" stroke="grey" stroke-width="2" d="M324.14,-503.697C318.267,-495.474 311.131,-485.483 304.658,-476.421"/>
<polygon fill="grey" stroke="grey" stroke-width="2" points="307.378,-474.207 298.717,-468.104 301.682,-478.276 307.378,-474.207"/>
</g>
<!-- 4&#45;&gt;7 -->
<g id="edge22" class="edge"><title>4&#45;&gt;7</title>
<path fill="none" stroke="grey" stroke-width="2" d="M402.611,-512.56C472.274,-503.267 585.049,-487.084 681.5,-468 682.777,-467.747 684.065,-467.487 685.363,-467.221"/>
<polygon fill="grey" stroke="grey" stroke-width="2" points="686.384,-470.581 695.43,-465.065 684.919,-463.736 686.384,-470.581"/>
</g>
<!-- 5&#45;&gt;0 -->
<g id="edge5" class="edge"><title>5&#45;&gt;0</title>
<path fill="none" stroke="grey" stroke-width="2" d="M146.969,-431.655C133.495,-405.468 110.5,-353.904 110.5,-307 110.5,-307 110.5,-307 110.5,-161 110.5,-115.41 128.671,-103.633 161.5,-72 179.842,-54.3261 205.251,-41.0324 225.994,-32.1792"/>
<polygon fill="grey" stroke="grey" stroke-width="2" points="227.523,-35.3352 235.452,-28.3073 224.871,-28.857 227.523,-35.3352"/>
</g>
<!-- 8 -->
<g id="node9" class="node"><title>8</title>
<path fill="none" stroke="#d88d56" stroke-width="2" stroke-dasharray="5,2" d="M339,-396C339,-396 234,-396 234,-396 228,-396 222,-390 222,-384 222,-384 222,-372 222,-372 222,-366 228,-360 234,-360 234,-360 339,-360 339,-360 345,-360 351,-366 351,-372 351,-372 351,-384 351,-384 351,-390 345,-396 339,-396"/>
<text text-anchor="middle" x="286.5" y="-375.5" font-family="sans" font-size="10.00">popins2_place_refalign</text>
</g>
<!-- 5&#45;&gt;8 -->
<g id="edge23" class="edge"><title>5&#45;&gt;8</title>
<path fill="none" stroke="grey" stroke-width="2" d="M188.302,-431.876C205.614,-422.554 227.221,-410.919 245.756,-400.939"/>
<polygon fill="grey" stroke="grey" stroke-width="2" points="247.431,-404.012 254.576,-396.19 244.112,-397.849 247.431,-404.012"/>
</g>
<!-- 6&#45;&gt;0 -->
<g id="edge6" class="edge"><title>6&#45;&gt;0</title>
<path fill="none" stroke="grey" stroke-width="2" d="M250.962,-431.873C210.073,-409.394 148.5,-365.784 148.5,-307 148.5,-307 148.5,-307 148.5,-161 148.5,-109.997 193.774,-66.8836 227.259,-41.971"/>
<polygon fill="grey" stroke="grey" stroke-width="2" points="229.423,-44.7258 235.484,-36.0357 225.326,-39.0495 229.423,-44.7258"/>
</g>
<!-- 6&#45;&gt;8 -->
<g id="edge24" class="edge"><title>6&#45;&gt;8</title>
<path fill="none" stroke="grey" stroke-width="2" d="M286.5,-431.697C286.5,-423.983 286.5,-414.712 286.5,-406.112"/>
<polygon fill="grey" stroke="grey" stroke-width="2" points="290,-406.104 286.5,-396.104 283,-406.104 290,-406.104"/>
</g>
<!-- 7&#45;&gt;0 -->
<g id="edge7" class="edge"><title>7&#45;&gt;0</title>
<path fill="none" stroke="grey" stroke-width="2" d="M758.583,-431.848C768.81,-405.487 786.5,-353.211 786.5,-307 786.5,-307 786.5,-307 786.5,-161 786.5,-120.031 793.662,-98.5958 762.5,-72 727.439,-42.077 409.867,-25.452 299.831,-20.5512"/>
<polygon fill="grey" stroke="grey" stroke-width="2" points="299.691,-17.0418 289.547,-20.1005 299.384,-24.035 299.691,-17.0418"/>
</g>
<!-- 7&#45;&gt;8 -->
<g id="edge25" class="edge"><title>7&#45;&gt;8</title>
<path fill="none" stroke="grey" stroke-width="2" d="M695.41,-440.556C611.857,-427.979 454.568,-404.301 361.306,-390.261"/>
<polygon fill="grey" stroke="grey" stroke-width="2" points="361.783,-386.794 351.373,-388.766 360.741,-393.716 361.783,-386.794"/>
</g>
<!-- 8&#45;&gt;0 -->
<g id="edge8" class="edge"><title>8&#45;&gt;0</title>
<path fill="none" stroke="grey" stroke-width="2" d="M247.711,-359.826C232.376,-351.178 215.951,-339.248 205.5,-324 182.633,-290.637 186.5,-275.447 186.5,-235 186.5,-235 186.5,-235 186.5,-161 186.5,-115.641 217.017,-70.7492 239.375,-43.9457"/>
<polygon fill="grey" stroke="grey" stroke-width="2" points="242.145,-46.0926 246.009,-36.2276 236.836,-41.5297 242.145,-46.0926"/>
</g>
<!-- 9 -->
<g id="node10" class="node"><title>9</title>
<path fill="none" stroke="#56d8a9" stroke-width="2" stroke-dasharray="5,2" d="M340,-324C340,-324 227,-324 227,-324 221,-324 215,-318 215,-312 215,-312 215,-300 215,-300 215,-294 221,-288 227,-288 227,-288 340,-288 340,-288 346,-288 352,-294 352,-300 352,-300 352,-312 352,-312 352,-318 346,-324 340,-324"/>
<text text-anchor="middle" x="283.5" y="-309" font-family="sans" font-size="10.00">popins2_place_splitalign</text>
<text text-anchor="middle" x="283.5" y="-298" font-family="sans" font-size="10.00">sample: HG00448</text>
</g>
<!-- 8&#45;&gt;9 -->
<g id="edge26" class="edge"><title>8&#45;&gt;9</title>
<path fill="none" stroke="grey" stroke-width="2" d="M285.758,-359.697C285.428,-351.983 285.031,-342.712 284.662,-334.112"/>
<polygon fill="grey" stroke="grey" stroke-width="2" points="288.158,-333.945 284.233,-324.104 281.165,-334.245 288.158,-333.945"/>
</g>
<!-- 10 -->
<g id="node11" class="node"><title>10</title>
<path fill="none" stroke="#56d8a9" stroke-width="2" stroke-dasharray="5,2" d="M495,-324C495,-324 382,-324 382,-324 376,-324 370,-318 370,-312 370,-312 370,-300 370,-300 370,-294 376,-288 382,-288 382,-288 495,-288 495,-288 501,-288 507,-294 507,-300 507,-300 507,-312 507,-312 507,-318 501,-324 495,-324"/>
<text text-anchor="middle" x="438.5" y="-309" font-family="sans" font-size="10.00">popins2_place_splitalign</text>
<text text-anchor="middle" x="438.5" y="-298" font-family="sans" font-size="10.00">sample: HG00449</text>
</g>
<!-- 8&#45;&gt;10 -->
<g id="edge27" class="edge"><title>8&#45;&gt;10</title>
<path fill="none" stroke="grey" stroke-width="2" d="M323.683,-359.876C344.37,-350.349 370.302,-338.407 392.285,-328.283"/>
<polygon fill="grey" stroke="grey" stroke-width="2" points="393.818,-331.43 401.437,-324.068 390.89,-325.072 393.818,-331.43"/>
</g>
<!-- 11 -->
<g id="node12" class="node"><title>11</title>
<path fill="none" stroke="#56d8a9" stroke-width="2" stroke-dasharray="5,2" d="M650,-324C650,-324 537,-324 537,-324 531,-324 525,-318 525,-312 525,-312 525,-300 525,-300 525,-294 531,-288 537,-288 537,-288 650,-288 650,-288 656,-288 662,-294 662,-300 662,-300 662,-312 662,-312 662,-318 656,-324 650,-324"/>
<text text-anchor="middle" x="593.5" y="-309" font-family="sans" font-size="10.00">popins2_place_splitalign</text>
<text text-anchor="middle" x="593.5" y="-298" font-family="sans" font-size="10.00">sample: HG00450</text>
</g>
<!-- 8&#45;&gt;11 -->
<g id="edge28" class="edge"><title>8&#45;&gt;11</title>
<path fill="none" stroke="grey" stroke-width="2" d="M351.232,-362.24C398.977,-351.354 464.18,-336.487 514.916,-324.918"/>
<polygon fill="grey" stroke="grey" stroke-width="2" points="515.889,-328.286 524.861,-322.651 514.333,-321.461 515.889,-328.286"/>
</g>
<!-- 9&#45;&gt;0 -->
<g id="edge9" class="edge"><title>9&#45;&gt;0</title>
<path fill="none" stroke="grey" stroke-width="2" d="M268.317,-287.703C260.768,-277.939 252.434,-265.095 248.5,-252 225.484,-175.382 238.199,-151.334 248.5,-72 249.603,-63.506 251.661,-54.4338 253.866,-46.2397"/>
<polygon fill="grey" stroke="grey" stroke-width="2" points="257.284,-47.0172 256.676,-36.4397 250.555,-45.0872 257.284,-47.0172"/>
</g>
<!-- 12 -->
<g id="node13" class="node"><title>12</title>
<path fill="none" stroke="#d8cb56" stroke-width="2" stroke-dasharray="5,2" d="M514.5,-252C514.5,-252 420.5,-252 420.5,-252 414.5,-252 408.5,-246 408.5,-240 408.5,-240 408.5,-228 408.5,-228 408.5,-222 414.5,-216 420.5,-216 420.5,-216 514.5,-216 514.5,-216 520.5,-216 526.5,-222 526.5,-228 526.5,-228 526.5,-240 526.5,-240 526.5,-246 520.5,-252 514.5,-252"/>
<text text-anchor="middle" x="467.5" y="-231.5" font-family="sans" font-size="10.00">popins2_place_finish</text>
</g>
<!-- 9&#45;&gt;12 -->
<g id="edge29" class="edge"><title>9&#45;&gt;12</title>
<path fill="none" stroke="grey" stroke-width="2" d="M328.511,-287.876C354.001,-278.179 386.068,-265.98 412.976,-255.743"/>
<polygon fill="grey" stroke="grey" stroke-width="2" points="414.533,-258.895 422.635,-252.068 412.044,-252.353 414.533,-258.895"/>
</g>
<!-- 10&#45;&gt;0 -->
<g id="edge10" class="edge"><title>10&#45;&gt;0</title>
<path fill="none" stroke="grey" stroke-width="2" d="M403.688,-287.886C366.599,-267.638 309.46,-230.23 281.5,-180 258.031,-137.838 257.475,-79.9385 259.668,-46.2906"/>
<polygon fill="grey" stroke="grey" stroke-width="2" points="263.161,-46.5111 260.451,-36.2688 256.183,-45.9658 263.161,-46.5111"/>
</g>
<!-- 10&#45;&gt;12 -->
<g id="edge30" class="edge"><title>10&#45;&gt;12</title>
<path fill="none" stroke="grey" stroke-width="2" d="M445.669,-287.697C448.935,-279.813 452.874,-270.304 456.502,-261.546"/>
<polygon fill="grey" stroke="grey" stroke-width="2" points="459.82,-262.683 460.414,-252.104 453.353,-260.003 459.82,-262.683"/>
</g>
<!-- 11&#45;&gt;0 -->
<g id="edge11" class="edge"><title>11&#45;&gt;0</title>
<path fill="none" stroke="grey" stroke-width="2" d="M612.609,-287.658C642.629,-258.206 695.015,-196.497 670.5,-144 649.408,-98.833 629.81,-92.7842 584.5,-72 488.602,-28.0099 361.829,-19.9743 299.849,-18.8618"/>
<polygon fill="grey" stroke="grey" stroke-width="2" points="299.805,-15.361 289.761,-18.7326 299.715,-22.3605 299.805,-15.361"/>
</g>
<!-- 11&#45;&gt;12 -->
<g id="edge31" class="edge"><title>11&#45;&gt;12</title>
<path fill="none" stroke="grey" stroke-width="2" d="M562.677,-287.876C546.05,-278.639 525.335,-267.131 507.481,-257.212"/>
<polygon fill="grey" stroke="grey" stroke-width="2" points="508.883,-253.987 498.442,-252.19 505.483,-260.106 508.883,-253.987"/>
</g>
<!-- 12&#45;&gt;0 -->
<g id="edge12" class="edge"><title>12&#45;&gt;0</title>
<path fill="none" stroke="grey" stroke-width="2" d="M526.654,-227.34C592.189,-218.406 684.776,-196.309 653.5,-144 618.806,-85.9727 583.051,-95.0691 519.5,-72 444.139,-44.6438 350.941,-29.8528 300.042,-23.2791"/>
<polygon fill="grey" stroke="grey" stroke-width="2" points="300.202,-19.7719 289.844,-21.9995 299.33,-26.7174 300.202,-19.7719"/>
</g>
<!-- 14 -->
<g id="node15" class="node"><title>14</title>
<path fill="none" stroke="#afd856" stroke-width="2" stroke-dasharray="5,2" d="M508.5,-180C508.5,-180 426.5,-180 426.5,-180 420.5,-180 414.5,-174 414.5,-168 414.5,-168 414.5,-156 414.5,-156 414.5,-150 420.5,-144 426.5,-144 426.5,-144 508.5,-144 508.5,-144 514.5,-144 520.5,-150 520.5,-156 520.5,-156 520.5,-168 520.5,-168 520.5,-174 514.5,-180 508.5,-180"/>
<text text-anchor="middle" x="467.5" y="-165" font-family="sans" font-size="10.00">popins2_genotype</text>
<text text-anchor="middle" x="467.5" y="-154" font-family="sans" font-size="10.00">sample: HG00448</text>
</g>
<!-- 12&#45;&gt;14 -->
<g id="edge35" class="edge"><title>12&#45;&gt;14</title>
<path fill="none" stroke="grey" stroke-width="2" d="M467.5,-215.697C467.5,-207.983 467.5,-198.712 467.5,-190.112"/>
<polygon fill="grey" stroke="grey" stroke-width="2" points="471,-190.104 467.5,-180.104 464,-190.104 471,-190.104"/>
</g>
<!-- 15 -->
<g id="node16" class="node"><title>15</title>
<path fill="none" stroke="#afd856" stroke-width="2" stroke-dasharray="5,2" d="M632.5,-180C632.5,-180 550.5,-180 550.5,-180 544.5,-180 538.5,-174 538.5,-168 538.5,-168 538.5,-156 538.5,-156 538.5,-150 544.5,-144 550.5,-144 550.5,-144 632.5,-144 632.5,-144 638.5,-144 644.5,-150 644.5,-156 644.5,-156 644.5,-168 644.5,-168 644.5,-174 638.5,-180 632.5,-180"/>
<text text-anchor="middle" x="591.5" y="-165" font-family="sans" font-size="10.00">popins2_genotype</text>
<text text-anchor="middle" x="591.5" y="-154" font-family="sans" font-size="10.00">sample: HG00449</text>
</g>
<!-- 12&#45;&gt;15 -->
<g id="edge36" class="edge"><title>12&#45;&gt;15</title>
<path fill="none" stroke="grey" stroke-width="2" d="M497.834,-215.876C514.197,-206.639 534.583,-195.131 552.154,-185.212"/>
<polygon fill="grey" stroke="grey" stroke-width="2" points="554.062,-188.154 561.05,-180.19 550.621,-182.058 554.062,-188.154"/>
</g>
<!-- 16 -->
<g id="node17" class="node"><title>16</title>
<path fill="none" stroke="#afd856" stroke-width="2" stroke-dasharray="5,2" d="M384.5,-180C384.5,-180 302.5,-180 302.5,-180 296.5,-180 290.5,-174 290.5,-168 290.5,-168 290.5,-156 290.5,-156 290.5,-150 296.5,-144 302.5,-144 302.5,-144 384.5,-144 384.5,-144 390.5,-144 396.5,-150 396.5,-156 396.5,-156 396.5,-168 396.5,-168 396.5,-174 390.5,-180 384.5,-180"/>
<text text-anchor="middle" x="343.5" y="-165" font-family="sans" font-size="10.00">popins2_genotype</text>
<text text-anchor="middle" x="343.5" y="-154" font-family="sans" font-size="10.00">sample: HG00450</text>
</g>
<!-- 12&#45;&gt;16 -->
<g id="edge37" class="edge"><title>12&#45;&gt;16</title>
<path fill="none" stroke="grey" stroke-width="2" d="M437.166,-215.876C420.803,-206.639 400.417,-195.131 382.846,-185.212"/>
<polygon fill="grey" stroke="grey" stroke-width="2" points="384.379,-182.058 373.95,-180.19 380.938,-188.154 384.379,-182.058"/>
</g>
<!-- 13 -->
<g id="node14" class="node"><title>13</title>
<path fill="none" stroke="#56c9d8" stroke-width="2" stroke-dasharray="5,2" d="M499,-108C499,-108 348,-108 348,-108 342,-108 336,-102 336,-96 336,-96 336,-84 336,-84 336,-78 342,-72 348,-72 348,-72 499,-72 499,-72 505,-72 511,-78 511,-84 511,-84 511,-96 511,-96 511,-102 505,-108 499,-108"/>
<text text-anchor="middle" x="423.5" y="-87.5" font-family="sans" font-size="10.00">popins2_check_genotype_status</text>
</g>
<!-- 13&#45;&gt;0 -->
<g id="edge13" class="edge"><title>13&#45;&gt;0</title>
<path fill="none" stroke="grey" stroke-width="2" d="M384.115,-71.8761C358.195,-60.6065 324.501,-45.957 299.154,-34.9364"/>
<polygon fill="grey" stroke="grey" stroke-width="2" points="300.448,-31.6825 289.881,-30.9049 297.656,-38.102 300.448,-31.6825"/>
</g>
<!-- 14&#45;&gt;13 -->
<g id="edge32" class="edge"><title>14&#45;&gt;13</title>
<path fill="none" stroke="grey" stroke-width="2" d="M456.624,-143.697C451.508,-135.559 445.305,-125.689 439.655,-116.701"/>
<polygon fill="grey" stroke="grey" stroke-width="2" points="442.536,-114.708 434.251,-108.104 436.61,-118.433 442.536,-114.708"/>
</g>
<!-- 15&#45;&gt;13 -->
<g id="edge33" class="edge"><title>15&#45;&gt;13</title>
<path fill="none" stroke="grey" stroke-width="2" d="M550.403,-143.876C527.334,-134.264 498.364,-122.193 473.93,-112.013"/>
<polygon fill="grey" stroke="grey" stroke-width="2" points="475.041,-108.684 464.464,-108.068 472.349,-115.145 475.041,-108.684"/>
</g>
<!-- 16&#45;&gt;13 -->
<g id="edge34" class="edge"><title>16&#45;&gt;13</title>
<path fill="none" stroke="grey" stroke-width="2" d="M363.275,-143.697C373.254,-134.965 385.511,-124.24 396.357,-114.75"/>
<polygon fill="grey" stroke="grey" stroke-width="2" points="398.731,-117.323 403.952,-108.104 394.122,-112.055 398.731,-117.323"/>
</g>
</g>
</svg>
