<?xml version="1.0" encoding="UTF-8" standalone="no"?>
<!DOCTYPE svg PUBLIC "-//W3C//DTD SVG 1.1//EN"
 "http://www.w3.org/Graphics/SVG/1.1/DTD/svg11.dtd">
<!-- Generated by graphviz version 2.38.0 (20140413.2041)
 -->
<!-- Title: snakemake_dag Pages: 1 -->
<svg width="819pt" height="620pt"
 viewBox="0.00 0.00 818.50 620.00" xmlns="http://www.w3.org/2000/svg" xmlns:xlink="http://www.w3.org/1999/xlink">
<g id="graph0" class="graph" transform="scale(1 1) rotate(0) translate(4 616)">
<title>snakemake_dag</title>
<polygon fill="white" stroke="none" points="-4,4 -4,-616 814.5,-616 814.5,4 -4,4"/>
<!-- 0 -->
<g id="node1" class="node"><title>0</title>
<path fill="none" stroke="#d85656" stroke-width="2" d="M577,-36C577,-36 547,-36 547,-36 541,-36 535,-30 535,-24 535,-24 535,-12 535,-12 535,-6 541,-0 547,-0 547,-0 577,-0 577,-0 583,-0 589,-6 589,-12 589,-12 589,-24 589,-24 589,-30 583,-36 577,-36"/>
<text text-anchor="middle" x="562" y="-15.5" font-family="sans" font-size="10.00">all</text>
</g>
<!-- 1 -->
<g id="node2" class="node"><title>1</title>
<path fill="none" stroke="#5692d8" stroke-width="2" stroke-dasharray="5,2" d="M279.5,-612C279.5,-612 196.5,-612 196.5,-612 190.5,-612 184.5,-606 184.5,-600 184.5,-600 184.5,-588 184.5,-588 184.5,-582 190.5,-576 196.5,-576 196.5,-576 279.5,-576 279.5,-576 285.5,-576 291.5,-582 291.5,-588 291.5,-588 291.5,-600 291.5,-600 291.5,-606 285.5,-612 279.5,-612"/>
<text text-anchor="middle" x="238" y="-597" font-family="sans" font-size="10.00">popins2_assemble</text>
<text text-anchor="middle" x="238" y="-586" font-family="sans" font-size="10.00">sample: HG00448</text>
</g>
<!-- 1&#45;&gt;0 -->
<g id="edge1" class="edge"><title>1&#45;&gt;0</title>
<path fill="none" stroke="grey" stroke-width="2" d="M184.291,-585.166C114.096,-571.544 0,-536.284 0,-451 0,-451 0,-451 0,-161 0,-115.846 11.3602,-96.943 49,-72 127.111,-20.2377 420.436,-17.6886 524.829,-18.4805"/>
<polygon fill="grey" stroke="grey" stroke-width="2" points="524.868,-21.9809 534.9,-18.572 524.932,-14.9812 524.868,-21.9809"/>
</g>
<!-- 4 -->
<g id="node5" class="node"><title>4</title>
<path fill="none" stroke="#56d873" stroke-width="2" stroke-dasharray="5,2" d="M592,-540C592,-540 484,-540 484,-540 478,-540 472,-534 472,-528 472,-528 472,-516 472,-516 472,-510 478,-504 484,-504 484,-504 592,-504 592,-504 598,-504 604,-510 604,-516 604,-516 604,-528 604,-528 604,-534 598,-540 592,-540"/>
<text text-anchor="middle" x="538" y="-519.5" font-family="sans" font-size="10.00">popins2_merge_contigs</text>
</g>
<!-- 1&#45;&gt;4 -->
<g id="edge14" class="edge"><title>1&#45;&gt;4</title>
<path fill="none" stroke="grey" stroke-width="2" d="M291.634,-580.485C339.054,-569.421 408.758,-553.157 461.932,-540.749"/>
<polygon fill="grey" stroke="grey" stroke-width="2" points="463.054,-544.082 471.997,-538.401 461.463,-537.265 463.054,-544.082"/>
</g>
<!-- 2 -->
<g id="node3" class="node"><title>2</title>
<path fill="none" stroke="#5692d8" stroke-width="2" stroke-dasharray="5,2" d="M641.5,-612C641.5,-612 558.5,-612 558.5,-612 552.5,-612 546.5,-606 546.5,-600 546.5,-600 546.5,-588 546.5,-588 546.5,-582 552.5,-576 558.5,-576 558.5,-576 641.5,-576 641.5,-576 647.5,-576 653.5,-582 653.5,-588 653.5,-588 653.5,-600 653.5,-600 653.5,-606 647.5,-612 641.5,-612"/>
<text text-anchor="middle" x="600" y="-597" font-family="sans" font-size="10.00">popins2_assemble</text>
<text text-anchor="middle" x="600" y="-586" font-family="sans" font-size="10.00">sample: HG00449</text>
</g>
<!-- 2&#45;&gt;0 -->
<g id="edge2" class="edge"><title>2&#45;&gt;0</title>
<path fill="none" stroke="grey" stroke-width="2" d="M641.133,-575.899C686.149,-554.116 752,-511.85 752,-451 752,-451 752,-451 752,-161 752,-85.403 654.299,-45.2069 599.018,-28.5137"/>
<polygon fill="grey" stroke="grey" stroke-width="2" points="599.802,-25.0968 589.222,-25.667 597.848,-31.8187 599.802,-25.0968"/>
</g>
<!-- 2&#45;&gt;4 -->
<g id="edge15" class="edge"><title>2&#45;&gt;4</title>
<path fill="none" stroke="grey" stroke-width="2" d="M584.674,-575.697C577.241,-567.305 568.177,-557.07 560.02,-547.861"/>
<polygon fill="grey" stroke="grey" stroke-width="2" points="562.4,-545.27 553.15,-540.104 557.16,-549.911 562.4,-545.27"/>
</g>
<!-- 3 -->
<g id="node4" class="node"><title>3</title>
<path fill="none" stroke="#5692d8" stroke-width="2" stroke-dasharray="5,2" d="M798.5,-612C798.5,-612 715.5,-612 715.5,-612 709.5,-612 703.5,-606 703.5,-600 703.5,-600 703.5,-588 703.5,-588 703.5,-582 709.5,-576 715.5,-576 715.5,-576 798.5,-576 798.5,-576 804.5,-576 810.5,-582 810.5,-588 810.5,-588 810.5,-600 810.5,-600 810.5,-606 804.5,-612 798.5,-612"/>
<text text-anchor="middle" x="757" y="-597" font-family="sans" font-size="10.00">popins2_assemble</text>
<text text-anchor="middle" x="757" y="-586" font-family="sans" font-size="10.00">sample: HG00450</text>
</g>
<!-- 3&#45;&gt;0 -->
<g id="edge3" class="edge"><title>3&#45;&gt;0</title>
<path fill="none" stroke="grey" stroke-width="2" d="M763.678,-575.811C773.321,-549.402 790,-497.064 790,-451 790,-451 790,-451 790,-161 790,-72.2113 663.878,-36.9465 599.241,-24.7035"/>
<polygon fill="grey" stroke="grey" stroke-width="2" points="599.512,-21.196 589.05,-22.8676 598.271,-28.0852 599.512,-21.196"/>
</g>
<!-- 3&#45;&gt;4 -->
<g id="edge16" class="edge"><title>3&#45;&gt;4</title>
<path fill="none" stroke="grey" stroke-width="2" d="M703.707,-575.966C672.841,-566.1 633.802,-553.622 601.369,-543.255"/>
<polygon fill="grey" stroke="grey" stroke-width="2" points="602.123,-539.822 591.532,-540.111 599.992,-546.489 602.123,-539.822"/>
</g>
<!-- 4&#45;&gt;0 -->
<g id="edge4" class="edge"><title>4&#45;&gt;0</title>
<path fill="none" stroke="grey" stroke-width="2" d="M471.862,-516.126C335.971,-504.289 38,-468.167 38,-379 38,-379 38,-379 38,-161 38,-114.027 55.1297,-96.8351 95,-72 166.586,-27.4095 427.065,-20.2736 524.702,-19.1787"/>
<polygon fill="grey" stroke="grey" stroke-width="2" points="524.743,-22.6786 534.709,-19.0816 524.675,-15.6789 524.743,-22.6786"/>
</g>
<!-- 5 -->
<g id="node6" class="node"><title>5</title>
<path fill="none" stroke="#70d856" stroke-width="2" stroke-dasharray="5,2" d="M582,-468C582,-468 494,-468 494,-468 488,-468 482,-462 482,-456 482,-456 482,-444 482,-444 482,-438 488,-432 494,-432 494,-432 582,-432 582,-432 588,-432 594,-438 594,-444 594,-444 594,-456 594,-456 594,-462 588,-468 582,-468"/>
<text text-anchor="middle" x="538" y="-453" font-family="sans" font-size="10.00">popins2_contigmap</text>
<text text-anchor="middle" x="538" y="-442" font-family="sans" font-size="10.00">sample: HG00448</text>
</g>
<!-- 4&#45;&gt;5 -->
<g id="edge17" class="edge"><title>4&#45;&gt;5</title>
<path fill="none" stroke="grey" stroke-width="2" d="M538,-503.697C538,-495.983 538,-486.712 538,-478.112"/>
<polygon fill="grey" stroke="grey" stroke-width="2" points="541.5,-478.104 538,-468.104 534.5,-478.104 541.5,-478.104"/>
</g>
<!-- 6 -->
<g id="node7" class="node"><title>6</title>
<path fill="none" stroke="#70d856" stroke-width="2" stroke-dasharray="5,2" d="M712,-468C712,-468 624,-468 624,-468 618,-468 612,-462 612,-456 612,-456 612,-444 612,-444 612,-438 618,-432 624,-432 624,-432 712,-432 712,-432 718,-432 724,-438 724,-444 724,-444 724,-456 724,-456 724,-462 718,-468 712,-468"/>
<text text-anchor="middle" x="668" y="-453" font-family="sans" font-size="10.00">popins2_contigmap</text>
<text text-anchor="middle" x="668" y="-442" font-family="sans" font-size="10.00">sample: HG00449</text>
</g>
<!-- 4&#45;&gt;6 -->
<g id="edge18" class="edge"><title>4&#45;&gt;6</title>
<path fill="none" stroke="grey" stroke-width="2" d="M569.802,-503.876C587.114,-494.554 608.721,-482.919 627.256,-472.939"/>
<polygon fill="grey" stroke="grey" stroke-width="2" points="628.931,-476.012 636.076,-468.19 625.612,-469.849 628.931,-476.012"/>
</g>
<!-- 7 -->
<g id="node8" class="node"><title>7</title>
<path fill="none" stroke="#70d856" stroke-width="2" stroke-dasharray="5,2" d="M452,-468C452,-468 364,-468 364,-468 358,-468 352,-462 352,-456 352,-456 352,-444 352,-444 352,-438 358,-432 364,-432 364,-432 452,-432 452,-432 458,-432 464,-438 464,-444 464,-444 464,-456 464,-456 464,-462 458,-468 452,-468"/>
<text text-anchor="middle" x="408" y="-453" font-family="sans" font-size="10.00">popins2_contigmap</text>
<text text-anchor="middle" x="408" y="-442" font-family="sans" font-size="10.00">sample: HG00450</text>
</g>
<!-- 4&#45;&gt;7 -->
<g id="edge19" class="edge"><title>4&#45;&gt;7</title>
<path fill="none" stroke="grey" stroke-width="2" d="M506.198,-503.876C488.886,-494.554 467.279,-482.919 448.744,-472.939"/>
<polygon fill="grey" stroke="grey" stroke-width="2" points="450.388,-469.849 439.924,-468.19 447.069,-476.012 450.388,-469.849"/>
</g>
<!-- 5&#45;&gt;0 -->
<g id="edge5" class="edge"><title>5&#45;&gt;0</title>
<path fill="none" stroke="grey" stroke-width="2" d="M573.538,-431.873C614.427,-409.394 676,-365.784 676,-307 676,-307 676,-307 676,-161 676,-109.997 630.726,-66.8836 597.241,-41.971"/>
<polygon fill="grey" stroke="grey" stroke-width="2" points="599.174,-39.0495 589.016,-36.0357 595.077,-44.7258 599.174,-39.0495"/>
</g>
<!-- 8 -->
<g id="node9" class="node"><title>8</title>
<path fill="none" stroke="#d8cb56" stroke-width="2" stroke-dasharray="5,2" d="M590.5,-396C590.5,-396 485.5,-396 485.5,-396 479.5,-396 473.5,-390 473.5,-384 473.5,-384 473.5,-372 473.5,-372 473.5,-366 479.5,-360 485.5,-360 485.5,-360 590.5,-360 590.5,-360 596.5,-360 602.5,-366 602.5,-372 602.5,-372 602.5,-384 602.5,-384 602.5,-390 596.5,-396 590.5,-396"/>
<text text-anchor="middle" x="538" y="-375.5" font-family="sans" font-size="10.00">popins2_place_refalign</text>
</g>
<!-- 5&#45;&gt;8 -->
<g id="edge20" class="edge"><title>5&#45;&gt;8</title>
<path fill="none" stroke="grey" stroke-width="2" d="M538,-431.697C538,-423.983 538,-414.712 538,-406.112"/>
<polygon fill="grey" stroke="grey" stroke-width="2" points="541.5,-406.104 538,-396.104 534.5,-406.104 541.5,-406.104"/>
</g>
<!-- 6&#45;&gt;0 -->
<g id="edge6" class="edge"><title>6&#45;&gt;0</title>
<path fill="none" stroke="grey" stroke-width="2" d="M677.531,-431.655C691.005,-405.468 714,-353.904 714,-307 714,-307 714,-307 714,-161 714,-97.9536 643.309,-54.8575 598.344,-33.8221"/>
<polygon fill="grey" stroke="grey" stroke-width="2" points="599.728,-30.6065 589.175,-29.669 596.84,-36.983 599.728,-30.6065"/>
</g>
<!-- 6&#45;&gt;8 -->
<g id="edge21" class="edge"><title>6&#45;&gt;8</title>
<path fill="none" stroke="grey" stroke-width="2" d="M636.198,-431.876C618.886,-422.554 597.279,-410.919 578.744,-400.939"/>
<polygon fill="grey" stroke="grey" stroke-width="2" points="580.388,-397.849 569.924,-396.19 577.069,-404.012 580.388,-397.849"/>
</g>
<!-- 7&#45;&gt;0 -->
<g id="edge7" class="edge"><title>7&#45;&gt;0</title>
<path fill="none" stroke="grey" stroke-width="2" d="M351.681,-449.259C256.96,-446.417 76,-425.484 76,-307 76,-307 76,-307 76,-161 76,-106.303 112.231,-96.7666 161,-72 224.261,-39.8739 437.501,-25.4425 524.534,-20.788"/>
<polygon fill="grey" stroke="grey" stroke-width="2" points="524.942,-24.2716 534.746,-20.2561 524.577,-17.2811 524.942,-24.2716"/>
</g>
<!-- 7&#45;&gt;8 -->
<g id="edge22" class="edge"><title>7&#45;&gt;8</title>
<path fill="none" stroke="grey" stroke-width="2" d="M439.802,-431.876C457.114,-422.554 478.721,-410.919 497.256,-400.939"/>
<polygon fill="grey" stroke="grey" stroke-width="2" points="498.931,-404.012 506.076,-396.19 495.612,-397.849 498.931,-404.012"/>
</g>
<!-- 8&#45;&gt;0 -->
<g id="edge8" class="edge"><title>8&#45;&gt;0</title>
<path fill="none" stroke="grey" stroke-width="2" d="M575.823,-359.908C591.073,-351.214 607.507,-339.228 618,-324 641.004,-290.616 638,-275.542 638,-235 638,-235 638,-235 638,-161 638,-115.641 607.483,-70.7492 585.125,-43.9457"/>
<polygon fill="grey" stroke="grey" stroke-width="2" points="587.664,-41.5297 578.491,-36.2276 582.355,-46.0926 587.664,-41.5297"/>
</g>
<!-- 9 -->
<g id="node10" class="node"><title>9</title>
<path fill="none" stroke="#d88d56" stroke-width="2" d="M597.5,-324C597.5,-324 484.5,-324 484.5,-324 478.5,-324 472.5,-318 472.5,-312 472.5,-312 472.5,-300 472.5,-300 472.5,-294 478.5,-288 484.5,-288 484.5,-288 597.5,-288 597.5,-288 603.5,-288 609.5,-294 609.5,-300 609.5,-300 609.5,-312 609.5,-312 609.5,-318 603.5,-324 597.5,-324"/>
<text text-anchor="middle" x="541" y="-309" font-family="sans" font-size="10.00">popins2_place_splitalign</text>
<text text-anchor="middle" x="541" y="-298" font-family="sans" font-size="10.00">sample: HG00448</text>
</g>
<!-- 8&#45;&gt;9 -->
<g id="edge23" class="edge"><title>8&#45;&gt;9</title>
<path fill="none" stroke="grey" stroke-width="2" d="M538.742,-359.697C539.072,-351.983 539.469,-342.712 539.838,-334.112"/>
<polygon fill="grey" stroke="grey" stroke-width="2" points="543.335,-334.245 540.267,-324.104 536.342,-333.945 543.335,-334.245"/>
</g>
<!-- 10 -->
<g id="node11" class="node"><title>10</title>
<path fill="none" stroke="#d88d56" stroke-width="2" d="M287.5,-324C287.5,-324 174.5,-324 174.5,-324 168.5,-324 162.5,-318 162.5,-312 162.5,-312 162.5,-300 162.5,-300 162.5,-294 168.5,-288 174.5,-288 174.5,-288 287.5,-288 287.5,-288 293.5,-288 299.5,-294 299.5,-300 299.5,-300 299.5,-312 299.5,-312 299.5,-318 293.5,-324 287.5,-324"/>
<text text-anchor="middle" x="231" y="-309" font-family="sans" font-size="10.00">popins2_place_splitalign</text>
<text text-anchor="middle" x="231" y="-298" font-family="sans" font-size="10.00">sample: HG00449</text>
</g>
<!-- 8&#45;&gt;10 -->
<g id="edge24" class="edge"><title>8&#45;&gt;10</title>
<path fill="none" stroke="grey" stroke-width="2" d="M473.268,-362.24C425.523,-351.354 360.32,-336.487 309.584,-324.918"/>
<polygon fill="grey" stroke="grey" stroke-width="2" points="310.167,-321.461 299.639,-322.651 308.611,-328.286 310.167,-321.461"/>
</g>
<!-- 11 -->
<g id="node12" class="node"><title>11</title>
<path fill="none" stroke="#d88d56" stroke-width="2" d="M442.5,-324C442.5,-324 329.5,-324 329.5,-324 323.5,-324 317.5,-318 317.5,-312 317.5,-312 317.5,-300 317.5,-300 317.5,-294 323.5,-288 329.5,-288 329.5,-288 442.5,-288 442.5,-288 448.5,-288 454.5,-294 454.5,-300 454.5,-300 454.5,-312 454.5,-312 454.5,-318 448.5,-324 442.5,-324"/>
<text text-anchor="middle" x="386" y="-309" font-family="sans" font-size="10.00">popins2_place_splitalign</text>
<text text-anchor="middle" x="386" y="-298" font-family="sans" font-size="10.00">sample: HG00450</text>
</g>
<!-- 8&#45;&gt;11 -->
<g id="edge25" class="edge"><title>8&#45;&gt;11</title>
<path fill="none" stroke="grey" stroke-width="2" d="M500.817,-359.876C480.13,-350.349 454.198,-338.407 432.215,-328.283"/>
<polygon fill="grey" stroke="grey" stroke-width="2" points="433.61,-325.072 423.063,-324.068 430.682,-331.43 433.61,-325.072"/>
</g>
<!-- 9&#45;&gt;0 -->
<g id="edge9" class="edge"><title>9&#45;&gt;0</title>
<path fill="none" stroke="grey" stroke-width="2" d="M556.183,-287.703C563.732,-277.939 572.066,-265.095 576,-252 599.016,-175.382 586.301,-151.334 576,-72 574.897,-63.506 572.839,-54.4338 570.634,-46.2397"/>
<polygon fill="grey" stroke="grey" stroke-width="2" points="573.945,-45.0872 567.824,-36.4397 567.216,-47.0172 573.945,-45.0872"/>
</g>
<!-- 12 -->
<g id="node13" class="node"><title>12</title>
<path fill="none" stroke="#afd856" stroke-width="2" d="M404,-252C404,-252 310,-252 310,-252 304,-252 298,-246 298,-240 298,-240 298,-228 298,-228 298,-222 304,-216 310,-216 310,-216 404,-216 404,-216 410,-216 416,-222 416,-228 416,-228 416,-240 416,-240 416,-246 410,-252 404,-252"/>
<text text-anchor="middle" x="357" y="-231.5" font-family="sans" font-size="10.00">popins2_place_finish</text>
</g>
<!-- 9&#45;&gt;12 -->
<g id="edge26" class="edge"><title>9&#45;&gt;12</title>
<path fill="none" stroke="grey" stroke-width="2" d="M495.989,-287.876C470.499,-278.179 438.432,-265.98 411.524,-255.743"/>
<polygon fill="grey" stroke="grey" stroke-width="2" points="412.456,-252.353 401.865,-252.068 409.967,-258.895 412.456,-252.353"/>
</g>
<!-- 10&#45;&gt;0 -->
<g id="edge10" class="edge"><title>10&#45;&gt;0</title>
<path fill="none" stroke="grey" stroke-width="2" d="M217.418,-287.63C200.338,-264.574 171.927,-221.876 161,-180 148.153,-130.764 157.441,-101.361 199,-72 250.95,-35.297 442.824,-23.6031 524.643,-20.2361"/>
<polygon fill="grey" stroke="grey" stroke-width="2" points="524.892,-23.7291 534.747,-19.8399 524.617,-16.7345 524.892,-23.7291"/>
</g>
<!-- 10&#45;&gt;12 -->
<g id="edge27" class="edge"><title>10&#45;&gt;12</title>
<path fill="none" stroke="grey" stroke-width="2" d="M261.823,-287.876C278.45,-278.639 299.165,-267.131 317.019,-257.212"/>
<polygon fill="grey" stroke="grey" stroke-width="2" points="319.017,-260.106 326.058,-252.19 315.617,-253.987 319.017,-260.106"/>
</g>
<!-- 11&#45;&gt;0 -->
<g id="edge11" class="edge"><title>11&#45;&gt;0</title>
<path fill="none" stroke="grey" stroke-width="2" d="M420.812,-287.886C457.901,-267.638 515.04,-230.23 543,-180 566.469,-137.838 567.025,-79.9385 564.832,-46.2906"/>
<polygon fill="grey" stroke="grey" stroke-width="2" points="568.317,-45.9658 564.049,-36.2688 561.339,-46.5111 568.317,-45.9658"/>
</g>
<!-- 11&#45;&gt;12 -->
<g id="edge28" class="edge"><title>11&#45;&gt;12</title>
<path fill="none" stroke="grey" stroke-width="2" d="M378.831,-287.697C375.565,-279.813 371.626,-270.304 367.998,-261.546"/>
<polygon fill="grey" stroke="grey" stroke-width="2" points="371.147,-260.003 364.086,-252.104 364.68,-262.683 371.147,-260.003"/>
</g>
<!-- 12&#45;&gt;0 -->
<g id="edge12" class="edge"><title>12&#45;&gt;0</title>
<path fill="none" stroke="grey" stroke-width="2" d="M297.874,-227.356C232.366,-218.439 139.806,-196.358 171,-144 205.403,-86.2546 240.844,-95.0103 304,-72 379.81,-44.3792 473.684,-29.6551 524.705,-23.1714"/>
<polygon fill="grey" stroke="grey" stroke-width="2" points="525.424,-26.6093 534.92,-21.9112 524.567,-19.662 525.424,-26.6093"/>
</g>
<!-- 14 -->
<g id="node15" class="node"><title>14</title>
<path fill="none" stroke="#56d8a9" stroke-width="2" d="M398,-180C398,-180 316,-180 316,-180 310,-180 304,-174 304,-168 304,-168 304,-156 304,-156 304,-150 310,-144 316,-144 316,-144 398,-144 398,-144 404,-144 410,-150 410,-156 410,-156 410,-168 410,-168 410,-174 404,-180 398,-180"/>
<text text-anchor="middle" x="357" y="-165" font-family="sans" font-size="10.00">popins2_genotype</text>
<text text-anchor="middle" x="357" y="-154" font-family="sans" font-size="10.00">sample: HG00448</text>
</g>
<!-- 12&#45;&gt;14 -->
<g id="edge32" class="edge"><title>12&#45;&gt;14</title>
<path fill="none" stroke="grey" stroke-width="2" d="M357,-215.697C357,-207.983 357,-198.712 357,-190.112"/>
<polygon fill="grey" stroke="grey" stroke-width="2" points="360.5,-190.104 357,-180.104 353.5,-190.104 360.5,-190.104"/>
</g>
<!-- 15 -->
<g id="node16" class="node"><title>15</title>
<path fill="none" stroke="#56d8a9" stroke-width="2" d="M522,-180C522,-180 440,-180 440,-180 434,-180 428,-174 428,-168 428,-168 428,-156 428,-156 428,-150 434,-144 440,-144 440,-144 522,-144 522,-144 528,-144 534,-150 534,-156 534,-156 534,-168 534,-168 534,-174 528,-180 522,-180"/>
<text text-anchor="middle" x="481" y="-165" font-family="sans" font-size="10.00">popins2_genotype</text>
<text text-anchor="middle" x="481" y="-154" font-family="sans" font-size="10.00">sample: HG00449</text>
</g>
<!-- 12&#45;&gt;15 -->
<g id="edge33" class="edge"><title>12&#45;&gt;15</title>
<path fill="none" stroke="grey" stroke-width="2" d="M387.334,-215.876C403.697,-206.639 424.083,-195.131 441.654,-185.212"/>
<polygon fill="grey" stroke="grey" stroke-width="2" points="443.562,-188.154 450.55,-180.19 440.121,-182.058 443.562,-188.154"/>
</g>
<!-- 16 -->
<g id="node17" class="node"><title>16</title>
<path fill="none" stroke="#56d8a9" stroke-width="2" d="M274,-180C274,-180 192,-180 192,-180 186,-180 180,-174 180,-168 180,-168 180,-156 180,-156 180,-150 186,-144 192,-144 192,-144 274,-144 274,-144 280,-144 286,-150 286,-156 286,-156 286,-168 286,-168 286,-174 280,-180 274,-180"/>
<text text-anchor="middle" x="233" y="-165" font-family="sans" font-size="10.00">popins2_genotype</text>
<text text-anchor="middle" x="233" y="-154" font-family="sans" font-size="10.00">sample: HG00450</text>
</g>
<!-- 12&#45;&gt;16 -->
<g id="edge34" class="edge"><title>12&#45;&gt;16</title>
<path fill="none" stroke="grey" stroke-width="2" d="M326.666,-215.876C310.303,-206.639 289.917,-195.131 272.346,-185.212"/>
<polygon fill="grey" stroke="grey" stroke-width="2" points="273.879,-182.058 263.45,-180.19 270.438,-188.154 273.879,-182.058"/>
</g>
<!-- 13 -->
<g id="node14" class="node"><title>13</title>
<path fill="none" stroke="#56c9d8" stroke-width="2" d="M476.5,-108C476.5,-108 325.5,-108 325.5,-108 319.5,-108 313.5,-102 313.5,-96 313.5,-96 313.5,-84 313.5,-84 313.5,-78 319.5,-72 325.5,-72 325.5,-72 476.5,-72 476.5,-72 482.5,-72 488.5,-78 488.5,-84 488.5,-84 488.5,-96 488.5,-96 488.5,-102 482.5,-108 476.5,-108"/>
<text text-anchor="middle" x="401" y="-87.5" font-family="sans" font-size="10.00">popins2_check_genotype_status</text>
</g>
<!-- 13&#45;&gt;0 -->
<g id="edge13" class="edge"><title>13&#45;&gt;0</title>
<path fill="none" stroke="grey" stroke-width="2" d="M440.385,-71.8761C466.305,-60.6065 499.999,-45.957 525.346,-34.9364"/>
<polygon fill="grey" stroke="grey" stroke-width="2" points="526.844,-38.102 534.619,-30.9049 524.052,-31.6825 526.844,-38.102"/>
</g>
<!-- 14&#45;&gt;13 -->
<g id="edge29" class="edge"><title>14&#45;&gt;13</title>
<path fill="none" stroke="grey" stroke-width="2" d="M367.876,-143.697C372.992,-135.559 379.195,-125.689 384.845,-116.701"/>
<polygon fill="grey" stroke="grey" stroke-width="2" points="387.89,-118.433 390.249,-108.104 381.964,-114.708 387.89,-118.433"/>
</g>
<!-- 15&#45;&gt;13 -->
<g id="edge30" class="edge"><title>15&#45;&gt;13</title>
<path fill="none" stroke="grey" stroke-width="2" d="M461.225,-143.697C451.246,-134.965 438.989,-124.24 428.143,-114.75"/>
<polygon fill="grey" stroke="grey" stroke-width="2" points="430.378,-112.055 420.548,-108.104 425.769,-117.323 430.378,-112.055"/>
</g>
<!-- 16&#45;&gt;13 -->
<g id="edge31" class="edge"><title>16&#45;&gt;13</title>
<path fill="none" stroke="grey" stroke-width="2" d="M274.097,-143.876C297.166,-134.264 326.136,-122.193 350.57,-112.013"/>
<polygon fill="grey" stroke="grey" stroke-width="2" points="352.151,-115.145 360.036,-108.068 349.459,-108.684 352.151,-115.145"/>
</g>
</g>
</svg>
